<mxfile host="app.diagrams.net" modified="2023-08-01T20:48:27.288Z" agent="Mozilla/5.0 (X11; Ubuntu; Linux x86_64; rv:109.0) Gecko/20100101 Firefox/115.0" etag="exCePtmH0mOW5htq9u0R" version="21.6.6" type="github">
  <diagram name="Page-1" id="v_KNb9IIgvCKRsmdT4mX">
    <mxGraphModel dx="1287" dy="1895" grid="1" gridSize="10" guides="1" tooltips="1" connect="1" arrows="1" fold="1" page="1" pageScale="1" pageWidth="850" pageHeight="1100" math="0" shadow="0">
      <root>
        <mxCell id="0" />
        <mxCell id="1" parent="0" />
        <mxCell id="4ENBnxS4jCJEMje_JMNm-1" value="" style="shape=table;startSize=0;container=1;collapsible=0;childLayout=tableLayout;" vertex="1" parent="1">
          <mxGeometry x="-240" y="-759" width="160" height="40" as="geometry" />
        </mxCell>
        <mxCell id="4ENBnxS4jCJEMje_JMNm-2" value="" style="shape=tableRow;horizontal=0;startSize=0;swimlaneHead=0;swimlaneBody=0;strokeColor=inherit;top=0;left=0;bottom=0;right=0;collapsible=0;dropTarget=0;fillColor=none;points=[[0,0.5],[1,0.5]];portConstraint=eastwest;" vertex="1" parent="4ENBnxS4jCJEMje_JMNm-1">
          <mxGeometry width="160" height="40" as="geometry" />
        </mxCell>
        <mxCell id="4ENBnxS4jCJEMje_JMNm-3" value="&lt;b&gt;vehiculo&lt;/b&gt;" style="shape=partialRectangle;html=1;whiteSpace=wrap;connectable=0;strokeColor=inherit;overflow=hidden;fillColor=none;top=0;left=0;bottom=0;right=0;pointerEvents=1;" vertex="1" parent="4ENBnxS4jCJEMje_JMNm-2">
          <mxGeometry width="160" height="40" as="geometry">
            <mxRectangle width="160" height="40" as="alternateBounds" />
          </mxGeometry>
        </mxCell>
        <mxCell id="4ENBnxS4jCJEMje_JMNm-4" value="" style="shape=table;startSize=0;container=1;collapsible=0;childLayout=tableLayout;" vertex="1" parent="1">
          <mxGeometry x="-240" y="-679" width="160" height="40" as="geometry" />
        </mxCell>
        <mxCell id="4ENBnxS4jCJEMje_JMNm-5" value="" style="shape=tableRow;horizontal=0;startSize=0;swimlaneHead=0;swimlaneBody=0;strokeColor=inherit;top=0;left=0;bottom=0;right=0;collapsible=0;dropTarget=0;fillColor=none;points=[[0,0.5],[1,0.5]];portConstraint=eastwest;" vertex="1" parent="4ENBnxS4jCJEMje_JMNm-4">
          <mxGeometry width="160" height="40" as="geometry" />
        </mxCell>
        <mxCell id="4ENBnxS4jCJEMje_JMNm-6" value="&lt;b&gt;Propietario&lt;/b&gt;" style="shape=partialRectangle;html=1;whiteSpace=wrap;connectable=0;strokeColor=inherit;overflow=hidden;fillColor=none;top=0;left=0;bottom=0;right=0;pointerEvents=1;" vertex="1" parent="4ENBnxS4jCJEMje_JMNm-5">
          <mxGeometry width="160" height="40" as="geometry">
            <mxRectangle width="160" height="40" as="alternateBounds" />
          </mxGeometry>
        </mxCell>
        <mxCell id="4ENBnxS4jCJEMje_JMNm-7" value="" style="shape=table;startSize=0;container=1;collapsible=0;childLayout=tableLayout;" vertex="1" parent="1">
          <mxGeometry x="120" y="-590" width="160" height="40" as="geometry" />
        </mxCell>
        <mxCell id="4ENBnxS4jCJEMje_JMNm-8" value="" style="shape=tableRow;horizontal=0;startSize=0;swimlaneHead=0;swimlaneBody=0;strokeColor=inherit;top=0;left=0;bottom=0;right=0;collapsible=0;dropTarget=0;fillColor=none;points=[[0,0.5],[1,0.5]];portConstraint=eastwest;" vertex="1" parent="4ENBnxS4jCJEMje_JMNm-7">
          <mxGeometry width="160" height="40" as="geometry" />
        </mxCell>
        <mxCell id="4ENBnxS4jCJEMje_JMNm-9" value="&lt;b&gt;Personal&lt;/b&gt;" style="shape=partialRectangle;html=1;whiteSpace=wrap;connectable=0;strokeColor=inherit;overflow=hidden;fillColor=none;top=0;left=0;bottom=0;right=0;pointerEvents=1;" vertex="1" parent="4ENBnxS4jCJEMje_JMNm-8">
          <mxGeometry width="160" height="40" as="geometry">
            <mxRectangle width="160" height="40" as="alternateBounds" />
          </mxGeometry>
        </mxCell>
        <mxCell id="4ENBnxS4jCJEMje_JMNm-10" value="" style="shape=table;startSize=0;container=1;collapsible=0;childLayout=tableLayout;" vertex="1" parent="1">
          <mxGeometry x="-240" y="-519" width="160" height="40" as="geometry" />
        </mxCell>
        <mxCell id="4ENBnxS4jCJEMje_JMNm-11" value="" style="shape=tableRow;horizontal=0;startSize=0;swimlaneHead=0;swimlaneBody=0;strokeColor=inherit;top=0;left=0;bottom=0;right=0;collapsible=0;dropTarget=0;fillColor=none;points=[[0,0.5],[1,0.5]];portConstraint=eastwest;" vertex="1" parent="4ENBnxS4jCJEMje_JMNm-10">
          <mxGeometry width="160" height="40" as="geometry" />
        </mxCell>
        <mxCell id="4ENBnxS4jCJEMje_JMNm-12" value="&lt;b&gt;Seguro&lt;/b&gt;" style="shape=partialRectangle;html=1;whiteSpace=wrap;connectable=0;strokeColor=inherit;overflow=hidden;fillColor=none;top=0;left=0;bottom=0;right=0;pointerEvents=1;" vertex="1" parent="4ENBnxS4jCJEMje_JMNm-11">
          <mxGeometry width="160" height="40" as="geometry">
            <mxRectangle width="160" height="40" as="alternateBounds" />
          </mxGeometry>
        </mxCell>
        <mxCell id="4ENBnxS4jCJEMje_JMNm-13" value="" style="shape=table;startSize=0;container=1;collapsible=0;childLayout=tableLayout;" vertex="1" parent="1">
          <mxGeometry x="-240" y="-599" width="160" height="40" as="geometry" />
        </mxCell>
        <mxCell id="4ENBnxS4jCJEMje_JMNm-14" value="" style="shape=tableRow;horizontal=0;startSize=0;swimlaneHead=0;swimlaneBody=0;strokeColor=inherit;top=0;left=0;bottom=0;right=0;collapsible=0;dropTarget=0;fillColor=none;points=[[0,0.5],[1,0.5]];portConstraint=eastwest;" vertex="1" parent="4ENBnxS4jCJEMje_JMNm-13">
          <mxGeometry width="160" height="40" as="geometry" />
        </mxCell>
        <mxCell id="4ENBnxS4jCJEMje_JMNm-15" value="&lt;b&gt;RegistroIngresosSalidas&lt;/b&gt;" style="shape=partialRectangle;html=1;whiteSpace=wrap;connectable=0;strokeColor=inherit;overflow=hidden;fillColor=none;top=0;left=0;bottom=0;right=0;pointerEvents=1;" vertex="1" parent="4ENBnxS4jCJEMje_JMNm-14">
          <mxGeometry width="160" height="40" as="geometry">
            <mxRectangle width="160" height="40" as="alternateBounds" />
          </mxGeometry>
        </mxCell>
        <mxCell id="4ENBnxS4jCJEMje_JMNm-16" value="" style="shape=table;startSize=0;container=1;collapsible=0;childLayout=tableLayout;" vertex="1" parent="1">
          <mxGeometry x="-240" y="-440" width="160" height="40" as="geometry" />
        </mxCell>
        <mxCell id="4ENBnxS4jCJEMje_JMNm-17" value="" style="shape=tableRow;horizontal=0;startSize=0;swimlaneHead=0;swimlaneBody=0;strokeColor=inherit;top=0;left=0;bottom=0;right=0;collapsible=0;dropTarget=0;fillColor=none;points=[[0,0.5],[1,0.5]];portConstraint=eastwest;" vertex="1" parent="4ENBnxS4jCJEMje_JMNm-16">
          <mxGeometry width="160" height="40" as="geometry" />
        </mxCell>
        <mxCell id="4ENBnxS4jCJEMje_JMNm-18" value="&lt;b&gt;ModeloVehiculo&lt;/b&gt;" style="shape=partialRectangle;html=1;whiteSpace=wrap;connectable=0;strokeColor=inherit;overflow=hidden;fillColor=none;top=0;left=0;bottom=0;right=0;pointerEvents=1;" vertex="1" parent="4ENBnxS4jCJEMje_JMNm-17">
          <mxGeometry width="160" height="40" as="geometry">
            <mxRectangle width="160" height="40" as="alternateBounds" />
          </mxGeometry>
        </mxCell>
        <mxCell id="4ENBnxS4jCJEMje_JMNm-19" value="" style="shape=table;startSize=0;container=1;collapsible=0;childLayout=tableLayout;" vertex="1" parent="1">
          <mxGeometry x="-240" y="-199" width="160" height="40" as="geometry" />
        </mxCell>
        <mxCell id="4ENBnxS4jCJEMje_JMNm-20" value="" style="shape=tableRow;horizontal=0;startSize=0;swimlaneHead=0;swimlaneBody=0;strokeColor=inherit;top=0;left=0;bottom=0;right=0;collapsible=0;dropTarget=0;fillColor=none;points=[[0,0.5],[1,0.5]];portConstraint=eastwest;" vertex="1" parent="4ENBnxS4jCJEMje_JMNm-19">
          <mxGeometry width="160" height="40" as="geometry" />
        </mxCell>
        <mxCell id="4ENBnxS4jCJEMje_JMNm-21" value="&lt;b&gt;Accesorios&lt;/b&gt;" style="shape=partialRectangle;html=1;whiteSpace=wrap;connectable=0;strokeColor=inherit;overflow=hidden;fillColor=none;top=0;left=0;bottom=0;right=0;pointerEvents=1;" vertex="1" parent="4ENBnxS4jCJEMje_JMNm-20">
          <mxGeometry width="160" height="40" as="geometry">
            <mxRectangle width="160" height="40" as="alternateBounds" />
          </mxGeometry>
        </mxCell>
        <mxCell id="4ENBnxS4jCJEMje_JMNm-22" value="" style="shape=table;startSize=0;container=1;collapsible=0;childLayout=tableLayout;" vertex="1" parent="1">
          <mxGeometry x="-240" y="-279" width="160" height="40" as="geometry" />
        </mxCell>
        <mxCell id="4ENBnxS4jCJEMje_JMNm-23" value="" style="shape=tableRow;horizontal=0;startSize=0;swimlaneHead=0;swimlaneBody=0;strokeColor=inherit;top=0;left=0;bottom=0;right=0;collapsible=0;dropTarget=0;fillColor=none;points=[[0,0.5],[1,0.5]];portConstraint=eastwest;" vertex="1" parent="4ENBnxS4jCJEMje_JMNm-22">
          <mxGeometry width="160" height="40" as="geometry" />
        </mxCell>
        <mxCell id="4ENBnxS4jCJEMje_JMNm-24" value="&lt;b&gt;TipoCombustible&lt;/b&gt;" style="shape=partialRectangle;html=1;whiteSpace=wrap;connectable=0;strokeColor=inherit;overflow=hidden;fillColor=none;top=0;left=0;bottom=0;right=0;pointerEvents=1;" vertex="1" parent="4ENBnxS4jCJEMje_JMNm-23">
          <mxGeometry width="160" height="40" as="geometry">
            <mxRectangle width="160" height="40" as="alternateBounds" />
          </mxGeometry>
        </mxCell>
        <mxCell id="4ENBnxS4jCJEMje_JMNm-25" value="" style="shape=table;startSize=0;container=1;collapsible=0;childLayout=tableLayout;" vertex="1" parent="1">
          <mxGeometry x="-240" y="-359" width="160" height="40" as="geometry" />
        </mxCell>
        <mxCell id="4ENBnxS4jCJEMje_JMNm-26" value="" style="shape=tableRow;horizontal=0;startSize=0;swimlaneHead=0;swimlaneBody=0;strokeColor=inherit;top=0;left=0;bottom=0;right=0;collapsible=0;dropTarget=0;fillColor=none;points=[[0,0.5],[1,0.5]];portConstraint=eastwest;" vertex="1" parent="4ENBnxS4jCJEMje_JMNm-25">
          <mxGeometry width="160" height="40" as="geometry" />
        </mxCell>
        <mxCell id="4ENBnxS4jCJEMje_JMNm-27" value="&lt;b&gt;Fabricante&lt;/b&gt;" style="shape=partialRectangle;html=1;whiteSpace=wrap;connectable=0;strokeColor=inherit;overflow=hidden;fillColor=none;top=0;left=0;bottom=0;right=0;pointerEvents=1;" vertex="1" parent="4ENBnxS4jCJEMje_JMNm-26">
          <mxGeometry width="160" height="40" as="geometry">
            <mxRectangle width="160" height="40" as="alternateBounds" />
          </mxGeometry>
        </mxCell>
        <mxCell id="4ENBnxS4jCJEMje_JMNm-28" value="" style="shape=table;startSize=0;container=1;collapsible=0;childLayout=tableLayout;" vertex="1" parent="1">
          <mxGeometry x="-240" y="-120" width="160" height="40" as="geometry" />
        </mxCell>
        <mxCell id="4ENBnxS4jCJEMje_JMNm-29" value="" style="shape=tableRow;horizontal=0;startSize=0;swimlaneHead=0;swimlaneBody=0;strokeColor=inherit;top=0;left=0;bottom=0;right=0;collapsible=0;dropTarget=0;fillColor=none;points=[[0,0.5],[1,0.5]];portConstraint=eastwest;" vertex="1" parent="4ENBnxS4jCJEMje_JMNm-28">
          <mxGeometry width="160" height="40" as="geometry" />
        </mxCell>
        <mxCell id="4ENBnxS4jCJEMje_JMNm-30" value="&lt;b&gt;RegistroMantenimiento&lt;/b&gt;" style="shape=partialRectangle;html=1;whiteSpace=wrap;connectable=0;strokeColor=inherit;overflow=hidden;fillColor=none;top=0;left=0;bottom=0;right=0;pointerEvents=1;" vertex="1" parent="4ENBnxS4jCJEMje_JMNm-29">
          <mxGeometry width="160" height="40" as="geometry">
            <mxRectangle width="160" height="40" as="alternateBounds" />
          </mxGeometry>
        </mxCell>
        <mxCell id="4ENBnxS4jCJEMje_JMNm-31" value="" style="shape=table;startSize=0;container=1;collapsible=0;childLayout=tableLayout;" vertex="1" parent="1">
          <mxGeometry x="-240" y="-40" width="160" height="40" as="geometry" />
        </mxCell>
        <mxCell id="4ENBnxS4jCJEMje_JMNm-32" value="" style="shape=tableRow;horizontal=0;startSize=0;swimlaneHead=0;swimlaneBody=0;strokeColor=inherit;top=0;left=0;bottom=0;right=0;collapsible=0;dropTarget=0;fillColor=none;points=[[0,0.5],[1,0.5]];portConstraint=eastwest;" vertex="1" parent="4ENBnxS4jCJEMje_JMNm-31">
          <mxGeometry width="160" height="40" as="geometry" />
        </mxCell>
        <mxCell id="4ENBnxS4jCJEMje_JMNm-33" value="&lt;b&gt;RegistroMultas&lt;/b&gt;" style="shape=partialRectangle;html=1;whiteSpace=wrap;connectable=0;strokeColor=inherit;overflow=hidden;fillColor=none;top=0;left=0;bottom=0;right=0;pointerEvents=1;" vertex="1" parent="4ENBnxS4jCJEMje_JMNm-32">
          <mxGeometry width="160" height="40" as="geometry">
            <mxRectangle width="160" height="40" as="alternateBounds" />
          </mxGeometry>
        </mxCell>
        <mxCell id="4ENBnxS4jCJEMje_JMNm-34" value="" style="shape=table;startSize=0;container=1;collapsible=0;childLayout=tableLayout;" vertex="1" parent="1">
          <mxGeometry x="-240" y="40" width="160" height="40" as="geometry" />
        </mxCell>
        <mxCell id="4ENBnxS4jCJEMje_JMNm-35" value="" style="shape=tableRow;horizontal=0;startSize=0;swimlaneHead=0;swimlaneBody=0;strokeColor=inherit;top=0;left=0;bottom=0;right=0;collapsible=0;dropTarget=0;fillColor=none;points=[[0,0.5],[1,0.5]];portConstraint=eastwest;" vertex="1" parent="4ENBnxS4jCJEMje_JMNm-34">
          <mxGeometry width="160" height="40" as="geometry" />
        </mxCell>
        <mxCell id="4ENBnxS4jCJEMje_JMNm-36" value="&lt;b&gt;RevisionTecnica&lt;/b&gt;" style="shape=partialRectangle;html=1;whiteSpace=wrap;connectable=0;strokeColor=inherit;overflow=hidden;fillColor=none;top=0;left=0;bottom=0;right=0;pointerEvents=1;" vertex="1" parent="4ENBnxS4jCJEMje_JMNm-35">
          <mxGeometry width="160" height="40" as="geometry">
            <mxRectangle width="160" height="40" as="alternateBounds" />
          </mxGeometry>
        </mxCell>
        <mxCell id="4ENBnxS4jCJEMje_JMNm-37" value="" style="shape=table;startSize=0;container=1;collapsible=0;childLayout=tableLayout;" vertex="1" parent="1">
          <mxGeometry x="-240" y="120" width="160" height="40" as="geometry" />
        </mxCell>
        <mxCell id="4ENBnxS4jCJEMje_JMNm-38" value="" style="shape=tableRow;horizontal=0;startSize=0;swimlaneHead=0;swimlaneBody=0;strokeColor=inherit;top=0;left=0;bottom=0;right=0;collapsible=0;dropTarget=0;fillColor=none;points=[[0,0.5],[1,0.5]];portConstraint=eastwest;" vertex="1" parent="4ENBnxS4jCJEMje_JMNm-37">
          <mxGeometry width="160" height="40" as="geometry" />
        </mxCell>
        <mxCell id="4ENBnxS4jCJEMje_JMNm-39" value="&lt;b&gt;TallerMantenimiento&lt;/b&gt;" style="shape=partialRectangle;html=1;whiteSpace=wrap;connectable=0;strokeColor=inherit;overflow=hidden;fillColor=none;top=0;left=0;bottom=0;right=0;pointerEvents=1;" vertex="1" parent="4ENBnxS4jCJEMje_JMNm-38">
          <mxGeometry width="160" height="40" as="geometry">
            <mxRectangle width="160" height="40" as="alternateBounds" />
          </mxGeometry>
        </mxCell>
        <mxCell id="4ENBnxS4jCJEMje_JMNm-40" value="" style="shape=table;startSize=0;container=1;collapsible=0;childLayout=tableLayout;" vertex="1" parent="1">
          <mxGeometry x="-240" y="200" width="160" height="40" as="geometry" />
        </mxCell>
        <mxCell id="4ENBnxS4jCJEMje_JMNm-41" value="" style="shape=tableRow;horizontal=0;startSize=0;swimlaneHead=0;swimlaneBody=0;strokeColor=inherit;top=0;left=0;bottom=0;right=0;collapsible=0;dropTarget=0;fillColor=none;points=[[0,0.5],[1,0.5]];portConstraint=eastwest;" vertex="1" parent="4ENBnxS4jCJEMje_JMNm-40">
          <mxGeometry width="160" height="40" as="geometry" />
        </mxCell>
        <mxCell id="4ENBnxS4jCJEMje_JMNm-42" value="&lt;b&gt;RegistroMantenimiento&lt;/b&gt;" style="shape=partialRectangle;html=1;whiteSpace=wrap;connectable=0;strokeColor=inherit;overflow=hidden;fillColor=none;top=0;left=0;bottom=0;right=0;pointerEvents=1;" vertex="1" parent="4ENBnxS4jCJEMje_JMNm-41">
          <mxGeometry width="160" height="40" as="geometry">
            <mxRectangle width="160" height="40" as="alternateBounds" />
          </mxGeometry>
        </mxCell>
        <mxCell id="4ENBnxS4jCJEMje_JMNm-43" value="" style="shape=table;startSize=0;container=1;collapsible=0;childLayout=tableLayout;" vertex="1" parent="1">
          <mxGeometry x="-240" y="280" width="160" height="40" as="geometry" />
        </mxCell>
        <mxCell id="4ENBnxS4jCJEMje_JMNm-44" value="" style="shape=tableRow;horizontal=0;startSize=0;swimlaneHead=0;swimlaneBody=0;strokeColor=inherit;top=0;left=0;bottom=0;right=0;collapsible=0;dropTarget=0;fillColor=none;points=[[0,0.5],[1,0.5]];portConstraint=eastwest;" vertex="1" parent="4ENBnxS4jCJEMje_JMNm-43">
          <mxGeometry width="160" height="40" as="geometry" />
        </mxCell>
        <mxCell id="4ENBnxS4jCJEMje_JMNm-45" value="&lt;b&gt;RegistroMantenimiento&lt;/b&gt;" style="shape=partialRectangle;html=1;whiteSpace=wrap;connectable=0;strokeColor=inherit;overflow=hidden;fillColor=none;top=0;left=0;bottom=0;right=0;pointerEvents=1;" vertex="1" parent="4ENBnxS4jCJEMje_JMNm-44">
          <mxGeometry width="160" height="40" as="geometry">
            <mxRectangle width="160" height="40" as="alternateBounds" />
          </mxGeometry>
        </mxCell>
      </root>
    </mxGraphModel>
  </diagram>
</mxfile>
